<svg id="Layer_1" data-name="Layer 1" xmlns="http://www.w3.org/2000/svg" viewBox="0 0 548.86 238.7"><defs><style>.cls-1{fill:#da3331;}.cls-1,.cls-2,.cls-3{stroke:#231f20;}.cls-1,.cls-2,.cls-3,.cls-4{stroke-miterlimit:10;}.cls-2{fill:#231f20;stroke-width:5px;}.cls-3{fill:none;stroke-width:15px;}.cls-4{fill:#ed1c24;stroke:#ed1c24;}</style></defs><path class="cls-1" d="M296,489.88l-80.5-80.5c-68.54-68.53,12.79-149.86,81.32-81.32,66.92-66.93,147.43,13.58,80.5,80.5Z" transform="translate(-20.76 -274.31)"/><path class="cls-2" d="M134.21,490.73q-31,39.56-62,0v-188q31-36.52,62,0Z" transform="translate(-20.76 -274.31)"/><path class="cls-2" d="M521.26,483q-31,39.57-62,0V295.07q31-36.52,62,0Z" transform="translate(-20.76 -274.31)"/><path class="cls-2" d="M71.45,474.53q-13.5,15-27,0v-152c8.77-13,17.78-12.39,27,0Z" transform="translate(-20.76 -274.31)"/><rect class="cls-2" x="29.69" y="156.22" width="7"/><path class="cls-2" d="M68.7,243" transform="translate(-20.76 -274.31)"/><path class="cls-2" d="M43.68,463.13C42,469.43,36,473,30.91,471.81c-3.79-.9-6.82-4.35-7.65-8.68V345.68c.28-5.09,3.57-9.25,7.65-10.21,5.38-1.27,11.9,3.07,12.77,10.21Z" transform="translate(-20.76 -274.31)"/><rect class="cls-2" x="12.71" y="156.22" width="4.09"/><path class="cls-2" d="M547.55,469.38q-13.5,15-27,0v-152c8.78-13,17.79-12.39,27,0Z" transform="translate(-20.76 -274.31)"/><path class="cls-2" d="M567.12,445.51c-1.64,6.31-7.64,9.89-12.77,8.68-3.79-.89-6.82-4.34-7.66-8.68V328.07c.29-5.09,3.58-9.26,7.66-10.22,5.37-1.26,11.9,3.08,12.77,10.22Z" transform="translate(-20.76 -274.31)"/><rect class="cls-2" x="511.61" y="123.47" width="4.09"/><path class="cls-3" d="M103.21,397.51,208.11,396l10.21-21.3,20.94,33.7,19.4-29.1L269.38,396l14.3-67.26,10.21,104.69,14.3-73,10.72,32h26l6.13-11.27,10.72,22.56,6.13-13.84H486.4" transform="translate(-20.76 -274.31)"/><path class="cls-4" d="M296,489.88l-80.5-80.5c-68.54-68.53,12.79-149.86,81.32-81.32,66.92-66.93,147.43,13.58,80.5,80.5Z" transform="translate(-20.76 -274.31)"/><path class="cls-2" d="M134.21,490.73q-31,39.56-62,0v-188q31-36.52,62,0Z" transform="translate(-20.76 -274.31)"/><path class="cls-2" d="M521.26,483q-31,39.57-62,0V295.07q31-36.52,62,0Z" transform="translate(-20.76 -274.31)"/><path class="cls-2" d="M71.45,474.53q-13.5,15-27,0v-152c8.77-13,17.78-12.39,27,0Z" transform="translate(-20.76 -274.31)"/><rect class="cls-2" x="29.69" y="156.22" width="7"/><path class="cls-2" d="M68.7,243" transform="translate(-20.76 -274.31)"/><path class="cls-2" d="M43.68,463.13C42,469.43,36,473,30.91,471.81c-3.79-.9-6.82-4.35-7.65-8.68V345.68c.28-5.09,3.57-9.25,7.65-10.21,5.38-1.27,11.9,3.07,12.77,10.21Z" transform="translate(-20.76 -274.31)"/><rect class="cls-2" x="12.71" y="156.22" width="4.09"/><path class="cls-2" d="M547.55,469.38q-13.5,15-27,0v-152c8.78-13,17.79-12.39,27,0Z" transform="translate(-20.76 -274.31)"/><path class="cls-2" d="M567.12,445.51c-1.64,6.31-7.64,9.89-12.77,8.68-3.79-.89-6.82-4.34-7.66-8.68V328.07c.29-5.09,3.58-9.26,7.66-10.22,5.37-1.26,11.9,3.08,12.77,10.22Z" transform="translate(-20.76 -274.31)"/><rect class="cls-2" x="511.61" y="123.47" width="4.09"/><path class="cls-3" d="M103.21,397.51,208.11,396l10.21-21.3,20.94,33.7,19.4-29.1L269.38,396l14.3-67.26,10.21,104.69,14.3-73,10.72,32h26l6.13-11.27,10.72,22.56,6.13-13.84H486.4" transform="translate(-20.76 -274.31)"/></svg>